<?xml version="1.0" encoding="UTF-8"?>
<svg width="1200" height="700" viewBox="0 0 1200 700" xmlns="http://www.w3.org/2000/svg">
  <defs>
    <linearGradient id="bg" x1="0" y1="0" x2="1" y2="1">
      <stop offset="0%" stop-color="#0d47a1" />
      <stop offset="100%" stop-color="#42a5f5" />
    </linearGradient>
    <filter id="shadow" x="-20%" y="-20%" width="140%" height="140%">
      <feDropShadow dx="0" dy="8" stdDeviation="18" flood-color="#000000" flood-opacity="0.18" />
    </filter>
  </defs>
  <rect x="0" y="0" width="1200" height="700" rx="40" fill="url(#bg)" />
  <g filter="url(#shadow)">
    <rect x="67" y="90" width="380" height="180" rx="28" fill="#ffffff" opacity="0.96" />
    <rect x="67" y="300" width="560" height="300" rx="32" fill="#ffffff" opacity="0.96" />
  </g>
  <circle cx="235" cy="180" r="42" fill="#1e88e5" />
  <text x="190" y="190" fill="#ffffff" font-family="Arial" font-size="24" font-weight="700">TASK</text>
  <text x="163" y="230" fill="#424242" font-family="Arial" font-size="18">Запланируй и контролируй</text>
  <text x="95" y="268" fill="#616161" font-family="Arial" font-size="16" letter-spacing="0.2">Гибкая система статусов, напоминания и авто-оповещения</text>
  <line x1="530" y1="135" x2="630" y2="135" stroke="#ffffff" stroke-width="4" opacity="0.7" />
  <line x1="690" y1="135" x2="920" y2="135" stroke="#ffffff" stroke-width="4" opacity="0.4" />
  <rect x="950" y="90" width="190" height="110" rx="16" fill="#f4f4f4" />
  <text x="980" y="130" fill="#0d47a1" font-family="Arial" font-size="18" font-weight="700">Напоминания</text>
  <text x="980" y="160" fill="#424242" font-family="Arial" font-size="15">Готово / Ожидает</text>
  <text x="980" y="186" fill="#424242" font-family="Arial" font-size="15">Просрочено / Отменено</text>
  <circle cx="885" cy="190" r="18" fill="#fdd835" />
  <circle cx="760" cy="435" r="30" fill="#4caf50" opacity="0.9" />
  <text x="738" y="442" fill="#ffffff" font-family="Arial" font-size="24" font-weight="700">24/7</text>
  <text x="730" y="472" fill="#ffffff" font-family="Arial" font-size="14">Мониторинг</text>

  <rect x="190" y="340" width="220" height="90" rx="20" fill="#bbdefb" />
  <text x="205" y="380" fill="#0d47a1" font-family="Arial" font-size="20" font-weight="700">+ Уведомления</text>
  <text x="205" y="405" fill="#0d47a1" font-family="Arial" font-size="14">Системные и popup</text>

  <rect x="475" y="440" width="260" height="100" rx="20" fill="#ffe082" />
  <text x="490" y="485" fill="#bf360c" font-family="Arial" font-size="20" font-weight="700">+ Безопасность</text>
  <text x="490" y="510" fill="#bf360c" font-family="Arial" font-size="14">Валидация и логирование</text>

  <text x="100" y="560" fill="#ffffff" font-family="Arial" font-size="32" font-weight="700">Reminder App Wind11</text>
  <text x="100" y="604" fill="#e3f2fd" font-family="Arial" font-size="18">Управляй задачами, не пропускай сроки, повышай конверсию и производительность.</text>
</svg>
